<svg width="24" height="25" viewBox="0 0 24 25" fill="none" xmlns="http://www.w3.org/2000/svg">
<path d="M12 9.52148V12.5215M12 12.5215V15.5215M12 12.5215H15M12 12.5215H9M21 12.5215C21 13.7034 20.7672 14.8737 20.3149 15.9656C19.8626 17.0576 19.1997 18.0497 18.364 18.8854C17.5282 19.7212 16.5361 20.3841 15.4442 20.8364C14.3522 21.2887 13.1819 21.5215 12 21.5215C10.8181 21.5215 9.64778 21.2887 8.55585 20.8364C7.46392 20.3841 6.47177 19.7212 5.63604 18.8854C4.80031 18.0497 4.13738 17.0576 3.68508 15.9656C3.23279 14.8737 3 13.7034 3 12.5215C3 10.1345 3.94821 7.84535 5.63604 6.15752C7.32387 4.4697 9.61305 3.52148 12 3.52148C14.3869 3.52148 16.6761 4.4697 18.364 6.15752C20.0518 7.84535 21 10.1345 21 12.5215Z" stroke="white" stroke-width="2" stroke-linecap="round" stroke-linejoin="round"/>
</svg>
