<svg width="24" height="25" viewBox="0 0 24 25" fill="none" xmlns="http://www.w3.org/2000/svg">
    <path
        d="M3 12.5215L5 10.5215M5 10.5215L12 3.52148L19 10.5215M5 10.5215V20.5215C5 20.7867 5.10536 21.0411 5.29289 21.2286C5.48043 21.4161 5.73478 21.5215 6 21.5215H9M19 10.5215L21 12.5215M19 10.5215V20.5215C19 20.7867 18.8946 21.0411 18.7071 21.2286C18.5196 21.4161 18.2652 21.5215 18 21.5215H15M9 21.5215C9.26522 21.5215 9.51957 21.4161 9.70711 21.2286C9.89464 21.0411 10 20.7867 10 20.5215V16.5215C10 16.2563 10.1054 16.0019 10.2929 15.8144C10.4804 15.6268 10.7348 15.5215 11 15.5215H13C13.2652 15.5215 13.5196 15.6268 13.7071 15.8144C13.8946 16.0019 14 16.2563 14 16.5215V20.5215C14 20.7867 14.1054 21.0411 14.2929 21.2286C14.4804 21.4161 14.7348 21.5215 15 21.5215M9 21.5215H15"
        stroke="white" stroke-width="2" stroke-linecap="round" stroke-linejoin="round" />
</svg>
