<svg width="24" height="25" viewBox="0 0 24 25" fill="none" xmlns="http://www.w3.org/2000/svg">
<path d="M11 16.5215L7 12.5215M7 12.5215L11 8.52148M7 12.5215H21M16 16.5215V17.5215C16 18.3171 15.6839 19.0802 15.1213 19.6428C14.5587 20.2054 13.7956 20.5215 13 20.5215H6C5.20435 20.5215 4.44129 20.2054 3.87868 19.6428C3.31607 19.0802 3 18.3171 3 17.5215V7.52148C3 6.72583 3.31607 5.96277 3.87868 5.40016C4.44129 4.83755 5.20435 4.52148 6 4.52148H13C13.7956 4.52148 14.5587 4.83755 15.1213 5.40016C15.6839 5.96277 16 6.72583 16 7.52148V8.52148" stroke="white" stroke-width="2" stroke-linecap="round" stroke-linejoin="round"/>
</svg>
