<svg width="24" height="25" viewBox="0 0 24 25" fill="none" xmlns="http://www.w3.org/2000/svg">
<path d="M9 5.52148H7C6.46957 5.52148 5.96086 5.7322 5.58579 6.10727C5.21071 6.48234 5 6.99105 5 7.52148V19.5215C5 20.0519 5.21071 20.5606 5.58579 20.9357C5.96086 21.3108 6.46957 21.5215 7 21.5215H17C17.5304 21.5215 18.0391 21.3108 18.4142 20.9357C18.7893 20.5606 19 20.0519 19 19.5215V7.52148C19 6.99105 18.7893 6.48234 18.4142 6.10727C18.0391 5.7322 17.5304 5.52148 17 5.52148H15M9 5.52148C9 6.05192 9.21071 6.56063 9.58579 6.9357C9.96086 7.31077 10.4696 7.52148 11 7.52148H13C13.5304 7.52148 14.0391 7.31077 14.4142 6.9357C14.7893 6.56063 15 6.05192 15 5.52148M9 5.52148C9 4.99105 9.21071 4.48234 9.58579 4.10727C9.96086 3.7322 10.4696 3.52148 11 3.52148H13C13.5304 3.52148 14.0391 3.7322 14.4142 4.10727C14.7893 4.48234 15 4.99105 15 5.52148M12 12.5215H15M12 16.5215H15M9 12.5215H9.01M9 16.5215H9.01" stroke="white" stroke-width="2" stroke-linecap="round" stroke-linejoin="round"/>
</svg>
